<svg width="300" height="291" viewBox="0 0 300 291" fill="none" xmlns="http://www.w3.org/2000/svg">
<path d="M296.112 1.071C293.709 -0.332374 290.749 -0.356579 288.329 0.998405L201.868 49.5843L170.163 3.4019C170.018 3.18413 169.833 3.01476 169.671 2.82119C169.615 2.7486 169.559 2.68408 169.502 2.61955C169.22 2.31307 168.929 2.03078 168.607 1.77269C168.518 1.7001 168.429 1.62751 168.341 1.56299C168.042 1.34523 167.728 1.15165 167.405 0.97421C167.268 0.901621 167.131 0.829037 166.986 0.764514C166.695 0.635468 166.405 0.522554 166.107 0.42577C165.905 0.361247 165.695 0.296723 165.494 0.24833C165.244 0.191873 165.002 0.151547 164.752 0.11122C164.477 0.0708933 164.203 0.0467001 163.929 0.0386347C163.735 0.0305693 163.542 0.0386303 163.348 0.0466957C163.018 0.0628264 162.695 0.0950919 162.364 0.15155C162.211 0.175746 162.066 0.216069 161.913 0.24833C161.55 0.328984 161.195 0.441902 160.848 0.579014C160.727 0.627406 160.614 0.675788 160.501 0.732246C160.283 0.82903 160.066 0.893558 159.856 1.01454L3.99236 88.5643C3.84719 88.6449 3.71814 88.7498 3.57296 88.8385C3.5165 88.8788 3.45198 88.895 3.39552 88.9353C3.35519 88.9595 3.331 88.9917 3.29874 89.0159C2.91967 89.2821 2.57285 89.5805 2.25024 89.9031C2.18571 89.9757 2.12119 90.0483 2.05666 90.1209C1.80664 90.3951 1.57274 90.6855 1.36304 91C1.29852 91.0968 1.22594 91.1855 1.16948 91.2904C0.943647 91.6614 0.742008 92.0485 0.572635 92.4599C0.540374 92.5405 0.516173 92.6212 0.491977 92.7018C0.36293 93.0486 0.258089 93.4116 0.1855 93.7745C0.161304 93.8874 0.137107 93.9923 0.120976 94.1052C0.0483874 94.5246 0 94.9601 0 95.3957V95.4602V95.4682V282.553C0 285.327 1.46789 287.9 3.87137 289.304C5.08925 290.021 6.4523 290.376 7.82342 290.376C9.14614 290.376 10.4608 290.046 11.6545 289.376L98.1557 240.798L129.861 286.981C129.901 287.037 129.941 287.086 129.982 287.134C130.07 287.255 130.167 287.376 130.264 287.489C130.385 287.634 130.506 287.779 130.635 287.916C130.724 288.013 130.821 288.11 130.917 288.199C131.062 288.344 131.216 288.473 131.377 288.602C131.474 288.683 131.571 288.755 131.667 288.828C131.845 288.957 132.014 289.078 132.2 289.191C132.256 289.223 132.305 289.271 132.361 289.304C132.409 289.328 132.458 289.352 132.506 289.376C132.7 289.481 132.893 289.578 133.095 289.667C133.208 289.715 133.313 289.771 133.426 289.812C133.627 289.892 133.821 289.957 134.022 290.013C134.135 290.046 134.256 290.086 134.369 290.118C134.587 290.175 134.805 290.215 135.031 290.247C135.135 290.263 135.232 290.288 135.337 290.304C135.668 290.344 135.99 290.368 136.321 290.368C136.369 290.368 136.418 290.36 136.466 290.36C136.773 290.352 137.071 290.336 137.378 290.296C137.523 290.28 137.66 290.239 137.805 290.215C138.015 290.175 138.225 290.134 138.434 290.07C138.587 290.029 138.733 289.973 138.886 289.925C139.088 289.852 139.281 289.779 139.483 289.691C139.628 289.626 139.765 289.562 139.902 289.489C139.983 289.449 140.071 289.417 140.152 289.368L296.008 201.81C298.476 200.423 300 197.818 300 194.995V7.82172C299.984 5.04723 298.508 2.47438 296.112 1.071ZM15.6468 269.172V120.592L89.2677 227.829L15.6468 269.172ZM132.482 88.5643C130.014 89.9515 128.49 92.5566 128.49 95.3795V257.324L19.115 98.0088L161.3 18.1293L188.173 57.2786L132.482 88.5643ZM284.345 190.398L144.136 269.172V99.9607L284.345 21.1861V190.398Z" fill="#00D2D2"/>
</svg>